HIERARCHY
ROOT Root
{
  OFFSET 0.0 0.0 0.0
  CHANNELS 6 Xposition Yposition Zposition Zrotation Yrotation Xrotation
  JOINT Hips
  {
    OFFSET 0.0 100.0 0.0
    CHANNELS 6 Xposition Yposition Zposition Zrotation Yrotation Xrotation
    JOINT Spine1
    {
      OFFSET 5.003913 -0.037094 -0.013727
      CHANNELS 3 Zrotation Yrotation Xrotation
      JOINT Spine2
      {
        OFFSET 7.125363 -1e-06 0.0
        CHANNELS 3 Zrotation Yrotation Xrotation
        JOINT Chest
        {
          OFFSET 7.594027 1e-06 0.0
          CHANNELS 3 Zrotation Yrotation Xrotation
          JOINT Neck1
          {
            OFFSET 26.313086 -0.460272 -0.181672
            CHANNELS 3 Zrotation Yrotation Xrotation
            JOINT Neck2
            {
              OFFSET 8.045911 0.0 0.0
              CHANNELS 3 Zrotation Yrotation Xrotation
              JOINT Head
              {
                OFFSET 6.432774 0.0 0.0
                CHANNELS 3 Zrotation Yrotation Xrotation
                JOINT HeadEnd
                {
                  OFFSET 16.169773 0.06451 0.00362
                  CHANNELS 3 Zrotation Yrotation Xrotation
                }
                JOINT Jaw
                {
                  OFFSET 0.108741 3.12938 0.002639
                  CHANNELS 3 Zrotation Yrotation Xrotation
                }
                JOINT LeftEye
                {
                  OFFSET 4.45173 8.166359 3.206392
                  CHANNELS 3 Zrotation Yrotation Xrotation
                }
                JOINT RightEye
                {
                  OFFSET 4.436895 8.135758 -3.222429
                  CHANNELS 3 Zrotation Yrotation Xrotation
                }
              }
            }
          }
          JOINT LeftShoulder
          {
            OFFSET 23.218927 5.195579 1.621656
            CHANNELS 3 Zrotation Yrotation Xrotation
            JOINT LeftArm
            {
              OFFSET 15.902118 2e-06 -2e-06
              CHANNELS 3 Zrotation Yrotation Xrotation
              JOINT LeftForeArm
              {
                OFFSET 28.739307 0.0 -1e-06
                CHANNELS 3 Zrotation Yrotation Xrotation
                JOINT LeftHand
                {
                  OFFSET 27.093981 -4e-06 0.0
                  CHANNELS 3 Zrotation Yrotation Xrotation
                  JOINT LeftHandThumb1
                  {
                    OFFSET 2.276781 3.380274 0.83384
                    CHANNELS 3 Zrotation Yrotation Xrotation
                    JOINT LeftHandThumb2
                    {
                      OFFSET 4.705309 -1e-06 -1e-06
                      CHANNELS 3 Zrotation Yrotation Xrotation
                      JOINT LeftHandThumb3
                      {
                        OFFSET 2.798515 0.0 3e-06
                        CHANNELS 3 Zrotation Yrotation Xrotation
                        JOINT LeftHandThumbEnd
                        {
                          OFFSET 3.180793 4e-06 -4e-06
                          CHANNELS 3 Zrotation Yrotation Xrotation
                        }
                      }
                    }
                  }
                  JOINT LeftHandIndex1
                  {
                    OFFSET 3.247786 2.352677 0.137192
                    CHANNELS 3 Zrotation Yrotation Xrotation
                    JOINT LeftHandIndex2
                    {
                      OFFSET 6.367095 1e-06 0.0
                      CHANNELS 3 Zrotation Yrotation Xrotation
                      JOINT LeftHandIndex3
                      {
                        OFFSET 3.662364 0.0 0.0
                        CHANNELS 3 Zrotation Yrotation Xrotation
                        JOINT LeftHandIndex4
                        {
                          OFFSET 2.329242 4e-06 -4e-06
                          CHANNELS 3 Zrotation Yrotation Xrotation
                          JOINT LeftHandIndexEnd
                          {
                            OFFSET 2.767823 1e-06 0.0
                            CHANNELS 3 Zrotation Yrotation Xrotation
                          }
                        }
                      }
                    }
                  }
                  JOINT LeftHandMiddle1
                  {
                    OFFSET 3.163612 0.945023 -0.406112
                    CHANNELS 3 Zrotation Yrotation Xrotation
                    JOINT LeftHandMiddle2
                    {
                      OFFSET 6.276789 3e-06 0.0
                      CHANNELS 3 Zrotation Yrotation Xrotation
                      JOINT LeftHandMiddle3
                      {
                        OFFSET 4.35652 -1e-06 4e-06
                        CHANNELS 3 Zrotation Yrotation Xrotation
                        JOINT LeftHandMiddle4
                        {
                          OFFSET 2.996877 0.0 8e-06
                          CHANNELS 3 Zrotation Yrotation Xrotation
                          JOINT LeftHandMiddleEnd
                          {
                            OFFSET 2.323256 3e-06 -4e-06
                            CHANNELS 3 Zrotation Yrotation Xrotation
                          }
                        }
                      }
                    }
                  }
                  JOINT LeftHandRing1
                  {
                    OFFSET 2.882606 -0.309162 0.107445
                    CHANNELS 3 Zrotation Yrotation Xrotation
                    JOINT LeftHandRing2
                    {
                      OFFSET 6.033198 0.0 4e-06
                      CHANNELS 3 Zrotation Yrotation Xrotation
                      JOINT LeftHandRing3
                      {
                        OFFSET 4.350578 3e-06 0.0
                        CHANNELS 3 Zrotation Yrotation Xrotation
                        JOINT LeftHandRing4
                        {
                          OFFSET 2.651321 2e-06 -7e-06
                          CHANNELS 3 Zrotation Yrotation Xrotation
                          JOINT LeftHandRingEnd
                          {
                            OFFSET 1.937663 1e-06 -4e-06
                            CHANNELS 3 Zrotation Yrotation Xrotation
                          }
                        }
                      }
                    }
                  }
                  JOINT LeftHandPinky1
                  {
                    OFFSET 2.865315 -1.525436 0.575687
                    CHANNELS 3 Zrotation Yrotation Xrotation
                    JOINT LeftHandPinky2
                    {
                      OFFSET 5.54936 1e-06 -8e-06
                      CHANNELS 3 Zrotation Yrotation Xrotation
                      JOINT LeftHandPinky3
                      {
                        OFFSET 3.070974 0.0 -4e-06
                        CHANNELS 3 Zrotation Yrotation Xrotation
                        JOINT LeftHandPinky4
                        {
                          OFFSET 1.549672 1e-06 0.0
                          CHANNELS 3 Zrotation Yrotation Xrotation
                          JOINT LeftHandPinkyEnd
                          {
                            OFFSET 1.952123 0.0 0.0
                            CHANNELS 3 Zrotation Yrotation Xrotation
                          }
                        }
                      }
                    }
                  }
                }
              }
            }
          }
          JOINT RightShoulder
          {
            OFFSET 23.161716 5.296122 -1.380114
            CHANNELS 3 Zrotation Yrotation Xrotation
            JOINT RightArm
            {
              OFFSET -16.027195 -2e-06 1.1e-05
              CHANNELS 3 Zrotation Yrotation Xrotation
              JOINT RightForeArm
              {
                OFFSET -28.736639 4e-06 2e-06
                CHANNELS 3 Zrotation Yrotation Xrotation
                JOINT RightHand
                {
                  OFFSET -27.133619 6e-06 0.0
                  CHANNELS 3 Zrotation Yrotation Xrotation
                  JOINT RightHandThumb1
                  {
                    OFFSET -2.274328 -3.351035 -0.83067
                    CHANNELS 3 Zrotation Yrotation Xrotation
                    JOINT RightHandThumb2
                    {
                      OFFSET -4.703594 -3e-06 2e-06
                      CHANNELS 3 Zrotation Yrotation Xrotation
                      JOINT RightHandThumb3
                      {
                        OFFSET -2.794935 -4e-06 -3e-06
                        CHANNELS 3 Zrotation Yrotation Xrotation
                        JOINT RightHandThumbEnd
                        {
                          OFFSET -3.183852 4e-06 1e-06
                          CHANNELS 3 Zrotation Yrotation Xrotation
                        }
                      }
                    }
                  }
                  JOINT RightHandIndex1
                  {
                    OFFSET -3.253496 -2.33755 -0.127667
                    CHANNELS 3 Zrotation Yrotation Xrotation
                    JOINT RightHandIndex2
                    {
                      OFFSET -6.344434 0.0 0.0
                      CHANNELS 3 Zrotation Yrotation Xrotation
                      JOINT RightHandIndex3
                      {
                        OFFSET -3.654871 0.0 -8e-06
                        CHANNELS 3 Zrotation Yrotation Xrotation
                        JOINT RightHandIndex4
                        {
                          OFFSET -2.327586 -1e-06 0.0
                          CHANNELS 3 Zrotation Yrotation Xrotation
                          JOINT RightHandIndexEnd
                          {
                            OFFSET -2.770001 3e-06 8e-06
                            CHANNELS 3 Zrotation Yrotation Xrotation
                          }
                        }
                      }
                    }
                  }
                  JOINT RightHandMiddle1
                  {
                    OFFSET -3.168223 -0.944764 0.411762
                    CHANNELS 3 Zrotation Yrotation Xrotation
                    JOINT RightHandMiddle2
                    {
                      OFFSET -6.266691 -1e-06 -4e-06
                      CHANNELS 3 Zrotation Yrotation Xrotation
                      JOINT RightHandMiddle3
                      {
                        OFFSET -4.348901 0.0 0.0
                        CHANNELS 3 Zrotation Yrotation Xrotation
                        JOINT RightHandMiddle4
                        {
                          OFFSET -3.00024 2e-06 -4e-06
                          CHANNELS 3 Zrotation Yrotation Xrotation
                          JOINT RightHandMiddleEnd
                          {
                            OFFSET -2.321477 -4e-06 -4e-06
                            CHANNELS 3 Zrotation Yrotation Xrotation
                          }
                        }
                      }
                    }
                  }
                  JOINT RightHandRing1
                  {
                    OFFSET -2.885654 0.293261 -0.119232
                    CHANNELS 3 Zrotation Yrotation Xrotation
                    JOINT RightHandRing2
                    {
                      OFFSET -6.032835 -1e-06 -4e-06
                      CHANNELS 3 Zrotation Yrotation Xrotation
                      JOINT RightHandRing3
                      {
                        OFFSET -4.33881 0.0 -4e-06
                        CHANNELS 3 Zrotation Yrotation Xrotation
                        JOINT RightHandRing4
                        {
                          OFFSET -2.654903 -4e-06 -4e-06
                          CHANNELS 3 Zrotation Yrotation Xrotation
                          JOINT RightHandRingEnd
                          {
                            OFFSET -1.935122 0.0 4e-06
                            CHANNELS 3 Zrotation Yrotation Xrotation
                          }
                        }
                      }
                    }
                  }
                  JOINT RightHandPinky1
                  {
                    OFFSET -2.866241 1.503904 -0.60527
                    CHANNELS 3 Zrotation Yrotation Xrotation
                    JOINT RightHandPinky2
                    {
                      OFFSET -5.553177 -2e-06 0.0
                      CHANNELS 3 Zrotation Yrotation Xrotation
                      JOINT RightHandPinky3
                      {
                        OFFSET -3.062664 -1e-06 -4e-06
                        CHANNELS 3 Zrotation Yrotation Xrotation
                        JOINT RightHandPinky4
                        {
                          OFFSET -1.546529 2e-06 4e-06
                          CHANNELS 3 Zrotation Yrotation Xrotation
                          JOINT RightHandPinkyEnd
                          {
                            OFFSET -1.952341 0.0 -4e-06
                            CHANNELS 3 Zrotation Yrotation Xrotation
                          }
                        }
                      }
                    }
                  }
                }
              }
            }
          }
        }
      }
    }
    JOINT LeftLeg
    {
      OFFSET -8.443107 2.567604 10.043214
      CHANNELS 3 Zrotation Yrotation Xrotation
      JOINT LeftShin
      {
        OFFSET 43.229198 1e-06 -1e-06
        CHANNELS 3 Zrotation Yrotation Xrotation
        JOINT LeftFoot
        {
          OFFSET 42.298611 1e-06 1e-06
          CHANNELS 3 Zrotation Yrotation Xrotation
          JOINT LeftToeBase
          {
            OFFSET 14.165858 1e-06 0.0
            CHANNELS 3 Zrotation Yrotation Xrotation
            JOINT LeftToeEnd
            {
              OFFSET 6.7141 -0.234461 0.0
              CHANNELS 3 Zrotation Yrotation Xrotation
            }
          }
        }
      }
    }
    JOINT RightLeg
    {
      OFFSET -8.303923 2.592729 -10.047278
      CHANNELS 3 Zrotation Yrotation Xrotation
      JOINT RightShin
      {
        OFFSET -43.369682 0.0 1e-06
        CHANNELS 3 Zrotation Yrotation Xrotation
        JOINT RightFoot
        {
          OFFSET -42.260784 4e-06 2e-06
          CHANNELS 3 Zrotation Yrotation Xrotation
          JOINT RightToeBase
          {
            OFFSET -14.222245 -2e-06 -1e-06
            CHANNELS 3 Zrotation Yrotation Xrotation
            JOINT RightToeEnd
            {
              OFFSET -6.660062 0.232574 -2e-06
              CHANNELS 3 Zrotation Yrotation Xrotation
            }
          }
        }
      }
    }
  }
}
MOTION
Frames: 4
Frame Time: 0.03333333333333333
0.0 0.0 0.0 0.0 -0.0 0.0 -1.946109 100.319183 -0.022988 90.346893 3.930624 89.738579 -3.536616 0.193598 0.132322 -12.212476 -0.381181 0.114873 24.529446 0.599774 -1.576274 17.196419 -1.53927 2.337945 -2.670674 -0.674813 0.143111 -40.920265 1.411381 -2.153186 7e-06 0.0 0.0 0.03872 -0.052153 -0.16133 0.119847 -0.134578 -0.154067 0.122927 0.031147 -0.161086 -123.55378 -74.74173 136.75528 43.029423 -38.861263 -10.923913 43.260708 -0.388028 0.328689 -0.179722 6.739621 -8.924805 17.636625 -26.322725 52.411186 -19.46666 -14.395597 29.410385 -1e-06 -8.774822 -3e-06 15.774505 -18.834026 6.636265 -0.609776 -1.795654 -3.889327 -4.807089 -11.046806 -2.937851 4e-06 -20.976013 1e-06 -5.019971 -25.033552 -4.031878 7e-06 1e-06 -4e-06 -10.634533 -5.68697 -3.565587 10.573272 -17.922945 -3.113902 4e-06 -13.821204 2e-06 -0.501778 -31.181488 -4.027018 -11.912902 -59.35722 7.603037 -13.982713 -7.150197 -2.875042 13.772729 -8.401491 -3.218242 0.347735 -34.211552 0.771654 -0.963028 -17.73337 2.621022 1e-06 1e-06 -0.0 -17.346413 -20.095213 -4.201784 21.757557 -1.638377 3.866428 -1e-06 -6.338824 2e-06 -1.69759 -22.59174 -6.194007 0.0 -4e-06 -2e-06 37.576584 -77.621017 155.330139 36.478916 -43.108116 -6.581511 41.047268 0.037498 0.338297 14.395778 1.587202 -11.18645 22.182108 -20.375898 49.933311 -16.701809 -16.743528 28.476522 -2e-06 -12.690598 0.0 15.050014 -17.385361 3.121803 -0.105919 -1.513855 -4.275881 -5.03904 -5.612868 -2.953556 7e-06 -11.02052 -1e-06 -6.111299 -15.895329 -3.840469 -2e-06 -0.0 0.0 -10.283369 -5.680288 -4.341838 11.028292 -11.302404 -2.372633 -1.384266 -14.238577 -6.320121 -0.625438 -26.924187 -3.8276 -4.320887 -49.053772 -3.45641 -13.708523 -7.363475 -3.720938 18.141144 -14.052738 -3.242674 9e-06 -18.787266 -1e-06 -0.429712 -8.456039 2.555501 0.0 1e-06 -1e-06 -15.923532 -20.094479 -5.473584 30.419205 -7.190826 1.735926 3e-06 -8.162925 -0.0 -1.861901 -22.861467 -6.16794 -0.0 -3e-06 -3e-06 -173.155563 -1.36357 -12.714701 5.324363 -0.035279 -0.025165 -75.747917 -11.323248 -3.389999 -3.284304 1.479038 2.167892 -0.999998 -0.0 0.0 5.363135 -1.1771 -6.202504 7.262802 0.050678 -0.133914 -77.708839 -7.291638 -3.848219 -2.776883 0.710138 1.732229 -1.000002 -0.0 0.0 
0.0 0.0 0.0 0.0 -0.0 0.0 -2.007961 100.331757 -0.16528 90.313515 4.2644 89.605125 -3.413803 0.156577 0.110373 -12.199757 -0.353711 0.110648 24.602764 0.601256 -1.59795 17.2845 -1.480449 2.447879 -2.645574 -0.643502 0.167293 -41.070961 1.498316 -1.996899 6e-06 -0.0 0.0 0.029542 -0.0501 -0.14389 0.156695 -0.1395 -0.134453 0.157921 0.041251 -0.145196 -120.525742 -75.299194 133.268265 44.516357 -35.749481 -14.333014 45.886986 -0.157696 0.333626 0.48258 7.455768 -9.190327 17.636639 -26.322737 52.411198 -19.466663 -14.395597 29.410389 -1e-06 -8.774821 -0.0 15.795883 -18.810303 6.613564 -0.609776 -1.795654 -3.889327 -4.807086 -11.046811 -2.937851 5e-06 -20.976019 1e-06 -5.01997 -25.033556 -4.031882 7e-06 -1e-06 -1e-06 -10.634533 -5.68697 -3.565589 10.573276 -17.922951 -3.1139 3e-06 -13.821213 4e-06 -0.501775 -31.181507 -4.027017 -12.007445 -59.415394 7.702505 -13.982713 -7.150198 -2.875043 13.772728 -8.401495 -3.218241 0.347737 -34.211555 0.771653 -0.963027 -17.733372 2.62102 -2e-06 1e-06 -1e-06 -17.34642 -20.095221 -4.201784 21.757561 -1.638376 3.86643 3e-06 -6.338824 1e-06 -1.697587 -22.591743 -6.194008 -0.0 -6e-06 -2e-06 38.405132 -78.198792 154.51651 38.056648 -39.521645 -10.577392 43.739731 0.021336 0.428327 14.059963 2.215211 -13.494308 22.18211 -20.375885 49.933296 -16.701811 -16.743525 28.476521 -1e-06 -12.6906 -1e-06 15.051632 -17.392002 3.160703 -0.10592 -1.513856 -4.27588 -5.039037 -5.612868 -2.953555 1e-06 -11.020523 -2e-06 -6.111296 -15.895334 -3.840468 -2e-06 1e-06 -1e-06 -10.28337 -5.680288 -4.341838 11.028291 -11.302402 -2.372631 -1.384267 -14.238579 -6.320121 -0.625437 -26.924179 -3.827599 -4.213675 -49.503017 -3.453415 -13.708525 -7.363475 -3.720937 18.141146 -14.052733 -3.242673 7e-06 -18.787268 -3e-06 -0.42971 -8.456039 2.5555 -1e-06 -1e-06 1e-06 -15.923534 -20.094479 -5.473581 30.419207 -7.190826 1.735925 2e-06 -8.162927 -0.0 -1.861903 -22.861467 -6.167942 0.0 -4e-06 -0.0 -172.921631 -1.434322 -12.436942 5.407578 -0.027289 -0.002884 -75.591637 -11.631146 -3.384851 -3.180437 1.512193 2.195863 -1.0 0.0 -0.0 5.797386 -1.10699 -6.201378 6.872451 0.067209 -0.126442 -77.42572 -7.06352 -3.783809 -2.708019 0.703909 1.735977 -1.000002 -0.0 0.0 
0.0 0.0 0.0 0.0 -0.0 0.0 -2.102156 100.309921 -0.346458 90.274696 4.505256 89.415398 -3.410259 0.106558 0.107954 -12.201237 -0.344303 0.151323 24.67598 0.627891 -1.578836 17.289673 -1.401708 2.466159 -2.647942 -0.603116 0.337255 -40.870094 1.561397 -1.841549 6e-06 -0.0 -0.0 0.029662 -0.045973 -0.137826 0.175598 -0.144014 -0.12547 0.184586 0.053914 -0.142355 -117.691414 -75.851517 130.039078 45.766365 -32.323166 -17.750675 48.641228 -0.04244 0.341804 0.731068 7.677013 -9.296493 17.636627 -26.322729 52.411186 -19.466661 -14.395598 29.410385 -1e-06 -8.774823 -2e-06 15.762877 -18.651936 6.601286 -0.609776 -1.795653 -3.889325 -4.807091 -11.046813 -2.937852 2e-06 -20.976019 -0.0 -5.019972 -25.03356 -4.031883 6e-06 1e-06 -0.0 -10.634537 -5.686973 -3.565585 10.573276 -17.922953 -3.113903 2e-06 -13.821211 2e-06 -0.501775 -31.181507 -4.027019 -12.081429 -59.481884 7.841456 -13.982715 -7.150199 -2.875039 13.772732 -8.401493 -3.218243 0.347735 -34.211555 0.771653 -0.963027 -17.73337 2.62102 -1e-06 -0.0 -1e-06 -17.346422 -20.095217 -4.201776 21.757563 -1.638372 3.866426 1e-06 -6.338824 0.0 -1.697589 -22.591747 -6.194008 -0.0 -4e-06 -2e-06 39.095844 -78.699516 153.573151 39.550549 -35.784439 -13.977458 46.299541 -0.106154 0.33893 13.481892 3.214829 -15.482309 22.182117 -20.375895 49.933319 -16.701811 -16.74353 28.47653 -3e-06 -12.690603 -0.0 14.972533 -17.37381 3.226687 -0.10592 -1.513856 -4.275882 -5.039041 -5.612871 -2.953555 2e-06 -11.020524 -0.0 -6.111298 -15.895334 -3.84047 -3e-06 -0.0 -1e-06 -10.283371 -5.680288 -4.341839 11.028295 -11.302405 -2.372633 -1.38427 -14.238579 -6.320121 -0.625437 -26.924183 -3.827603 -4.219518 -49.794098 -3.368863 -13.708526 -7.363477 -3.720938 18.14115 -14.052737 -3.242674 6e-06 -18.787273 -0.0 -0.429711 -8.456043 2.555504 1e-06 -1e-06 1e-06 -15.923536 -20.094482 -5.473584 30.419214 -7.190825 1.735926 1e-06 -8.162927 0.0 -1.861902 -22.861469 -6.167943 -1e-06 -5e-06 -1e-06 -172.830093 -1.541534 -12.349332 5.577468 -0.025277 -0.010397 -75.626244 -11.809819 -3.281699 -3.171673 1.51793 2.201785 -0.999999 -0.0 -0.0 5.759548 -1.055809 -6.262429 7.235701 0.084591 -0.096942 -77.553696 -6.690466 -3.676692 -2.719177 0.706909 1.738992 -1.000001 0.0 -0.0 
0.0 0.0 0.0 0.0 -0.0 0.0 -2.206206 100.298981 -0.541636 90.20871 4.668928 89.18174 -3.43669 0.05801 0.100003 -12.224635 -0.324188 0.200262 24.740988 0.656365 -1.532469 17.191622 -1.301442 2.422067 -2.649934 -0.620835 0.617194 -40.642742 1.673025 -1.726907 5e-06 -0.0 -0.0 0.028758 -0.041127 -0.128995 0.175783 -0.141838 -0.114989 0.189789 0.061213 -0.136027 -114.712006 -76.278587 126.617447 46.864937 -28.790003 -21.417797 51.486137 -0.21665 0.217259 1.026603 7.865967 -9.408602 17.636627 -26.322725 52.41119 -19.466656 -14.395598 29.410381 0.0 -8.774821 -1e-06 15.821126 -18.356688 6.483291 -0.609776 -1.795653 -3.889328 -4.807092 -11.046811 -2.937851 2e-06 -20.976015 1e-06 -5.019971 -25.033552 -4.031884 6e-06 1e-06 -1e-06 -10.634535 -5.686969 -3.565587 10.573272 -17.922949 -3.1139 1e-06 -13.82121 0.0 -0.501782 -31.181498 -4.027016 -12.049345 -59.60215 7.902137 -13.982716 -7.150198 -2.87504 13.772731 -8.401489 -3.218239 0.347731 -34.211544 0.771653 -0.963027 -17.73337 2.621018 -1e-06 1e-06 0.0 -17.346422 -20.095217 -4.201779 21.757559 -1.638373 3.866428 1e-06 -6.338823 -0.0 -1.697593 -22.591747 -6.194006 3e-06 -4e-06 -4e-06 40.083828 -79.233635 152.171432 41.104427 -32.186176 -17.164673 48.844246 -0.159368 0.175072 12.841023 4.135813 -16.969875 22.182114 -20.375895 49.933319 -16.701817 -16.74353 28.476534 -5e-06 -12.6906 0.0 14.879588 -17.34763 3.280204 -0.10592 -1.513856 -4.275882 -5.03904 -5.612871 -2.953556 5e-06 -11.020525 -2e-06 -6.111298 -15.895334 -3.840472 1e-06 3e-06 0.0 -10.283369 -5.680288 -4.341838 11.028293 -11.302405 -2.372632 -1.384268 -14.238581 -6.320122 -0.62544 -26.924187 -3.827601 -4.33696 -49.974171 -3.22573 -13.708527 -7.363475 -3.720938 18.141148 -14.052739 -3.242674 7e-06 -18.78727 -2e-06 -0.42971 -8.456047 2.555504 -0.0 -0.0 0.0 -15.923534 -20.094482 -5.473585 30.419207 -7.190824 1.735926 3e-06 -8.162926 0.0 -1.861903 -22.861465 -6.167941 1e-06 -4e-06 -0.0 -172.798752 -1.668039 -12.365148 5.699239 -0.032338 -0.019493 -75.620934 -11.981711 -3.271713 -3.243405 1.508216 2.191898 -0.999999 2e-06 -0.0 5.684307 -0.962952 -6.249969 7.452874 0.089838 -0.084684 -77.57032 -6.340321 -3.557871 -2.813117 0.715761 1.738096 -1.000004 0.0 0.0 
